<?xml version="1.0" encoding="UTF-8"?>
<svg xmlns="http://www.w3.org/2000/svg" viewBox="0 0 3006 1190" width="3006" height="1190" color="#000000">
  <rect width="3006" height="1190" fill="#FFFFFF"/>
  <g transform="translate(0.000000,1190.000000) scale(0.100000,-0.100000)"
fill="currentColor" stroke="none">
    <path d="M26269 10273 c-578 -723 -1741 -2181 -1892 -2370 -75 -95 -137 -175
-137 -178 0 -5 310 227 1015 760 110 83 418 315 685 516 l484 364 206 208
c113 115 206 214 208 220 1 7 -44 220 -101 475 l-103 463 -365 -458z M27536
10480 c-110 -113 -286 -293 -391 -400 -191 -196 -565 -581 -1230 -1265 -197
-203 -436 -449 -529 -545 -94 -96 -256 -263 -361 -370 -104 -107 -253 -260
-330 -339 -103 -106 -130 -138 -100 -120 41 24 406 251 925 577 435 273 1113
698 1455 913 297 185 303 190 615 454 173 146 316 270 318 274 3 9 -154 965
-165 1001 -8 24 -19 15 -207 -180z M24980 9633 c-354 -549 -747 -1157 -872
-1351 -125 -194 -222 -350 -215 -345 6 4 84 71 172 148 526 464 965 849 1199
1055 259 227 273 241 419 425 83 104 150 198 150 207 -2 23 -192 818 -201 841
-6 15 -157 -213 -652 -980z M23876 10480 c-27 -70 -774 -2285 -772 -2287 1 -2
34 39 72 90 38 51 285 382 549 735 264 354 481 649 483 657 2 8 -64 180 -147
382 -191 471 -178 441 -185 423z M3090 9432 c-244 -527 -526 -1132 -626 -1347
-309 -665 -841 -1806 -1329 -2855 -257 -553 -557 -1196 -666 -1430 l-198 -425
531 -3 c293 -1 535 1 540 6 4 4 172 366 373 803 l364 794 1416 0 1416 0 320
-740 c176 -407 332 -768 346 -802 l27 -63 543 0 c299 0 543 3 543 6 0 3 -147
333 -326 733 -608 1352 -726 1615 -899 2001 -258 575 -630 1403 -923 2055
-848 1889 -993 2210 -1000 2216 -4 4 -207 -423 -452 -949z m805 -2122 c509
-1166 605 -1388 605 -1394 0 -3 -450 -6 -1000 -6 -550 0 -1000 4 -1000 8 0 5
67 154 148 333 82 178 194 423 249 544 56 121 212 463 348 760 136 297 254
556 263 575 l15 35 13 -30 c6 -16 168 -388 359 -825z M28479 10117 c-163 -139
-727 -616 -1254 -1062 -1107 -936 -1609 -1360 -1715 -1450 -41 -35 -199 -168
-350 -295 -151 -128 -284 -241 -295 -252 l-20 -20 20 10 c11 5 175 92 365 192
190 100 768 405 1285 678 517 272 1057 557 1199 633 246 130 282 153 668 426
l407 288 1 553 c0 303 -3 552 -7 551 -5 0 -141 -114 -304 -252z M29540 9779
c-124 -88 -274 -195 -335 -238 -60 -42 -252 -178 -425 -301 -173 -123 -353
-250 -400 -283 -47 -34 -278 -198 -515 -366 -834 -591 -1052 -746 -1250 -886
-802 -567 -1552 -1099 -1560 -1107 -6 -7 -3 -7 10 0 11 5 295 131 630 280 336
148 1060 468 1610 712 550 243 1218 539 1485 657 267 118 573 253 680 301 107
47 198 88 202 91 8 7 101 1265 96 1287 -2 7 -104 -60 -228 -147z M16665 9890
c-146 -17 -257 -71 -365 -180 -81 -81 -135 -170 -166 -275 -24 -82 -24 -248 0
-329 44 -149 143 -283 269 -366 100 -65 200 -93 337 -94 128 0 170 9 280 61
57 27 93 55 155 117 115 116 166 218 185 370 33 267 -103 516 -345 635 -114
56 -223 75 -350 61z M18470 8305 l0 -765 -205 0 -205 0 0 -450 0 -450 205 0
205 0 0 -1635 0 -1635 485 0 485 0 0 1635 0 1635 373 2 372 3 0 445 0 445
-372 3 -373 2 0 765 0 765 -485 0 -485 0 0 -765z M9290 7653 c-613 -21 -1125
-240 -1551 -663 -245 -243 -421 -523 -524 -831 -206 -621 -130 -1344 198
-1868 174 -279 459 -557 748 -729 236 -142 522 -240 829 -287 147 -22 459 -30
595 -16 298 33 572 111 858 244 l97 46 0 633 -1 633 -56 -65 c-105 -121 -358
-365 -438 -422 -209 -147 -443 -218 -721 -218 -344 0 -629 115 -859 345 -188
188 -307 422 -356 705 -26 147 -29 402 -6 540 67 397 283 723 612 923 261 158
643 206 966 122 121 -32 289 -116 404 -202 97 -73 307 -279 395 -387 l55 -68
3 629 c1 345 0 633 -2 639 -5 14 -148 83 -280 136 -199 79 -482 143 -680 153
-187 10 -211 11 -286 8z M22590 7648 c-744 -36 -1326 -420 -1641 -1083 -264
-557 -302 -1360 -94 -1984 198 -592 643 -1043 1210 -1224 246 -79 416 -102
735 -102 257 1 373 12 565 57 498 115 924 436 1270 958 94 142 121 188 114
193 -8 7 -799 447 -804 447 -2 0 -41 -55 -87 -122 -216 -319 -402 -507 -584
-589 -214 -97 -520 -116 -773 -48 -307 82 -570 335 -686 657 -42 119 -85 321
-85 403 0 19 25 19 1495 19 l1495 0 0 198 c0 598 -116 1052 -364 1424 -375
565 -974 835 -1766 796z m292 -868 c340 -33 590 -194 735 -474 48 -93 115
-275 106 -288 -5 -9 -1917 -11 -1926 -2 -9 10 51 172 96 257 146 277 429 471
736 507 94 11 143 11 253 0z M11480 6228 c0 -1348 3 -1445 41 -1678 46 -276
161 -518 345 -722 350 -388 812 -578 1403 -578 538 0 978 169 1311 500 257
258 369 500 437 950 15 104 17 249 20 1478 l4 1362 -480 0 -480 0 -4 -1312
c-4 -1414 -2 -1353 -56 -1554 -28 -103 -98 -245 -153 -311 -92 -110 -215 -187
-360 -225 -69 -19 -110 -22 -248 -22 -190 0 -256 12 -384 73 -220 104 -347
298 -413 631 -15 76 -17 217 -20 1403 l-4 1317 -479 0 -480 0 0 -1312z M16260
5455 l0 -2085 480 0 480 0 0 2085 0 2085 -480 0 -480 0 0 -2085z M6905 1843
c-142 -307 -260 -562 -263 -566 -2 -4 38 -6 89 -5 l93 3 52 115 52 115 243 0
243 0 53 -115 53 -115 90 -3 c49 -1 90 0 90 3 0 19 -516 1119 -527 1122 -5 2
-126 -248 -268 -554z m352 10 l80 -178 -160 -3 c-88 -1 -162 0 -165 2 -6 6
150 355 159 356 3 0 42 -80 86 -177z M9430 1838 l0 -568 80 0 80 0 0 373 1
372 379 -385 379 -385 1 568 0 567 -80 0 -80 0 0 -370 c0 -203 -1 -370 -3
-370 -2 0 -93 91 -203 202 -109 112 -279 284 -376 383 l-178 180 0 -567z
M20622 2248 c-39 -84 -155 -333 -257 -553 -103 -220 -189 -406 -192 -412 -4
-10 17 -13 85 -13 l89 0 54 120 54 120 244 -2 245 -3 53 -115 52 -115 91 -3
91 -3 -14 28 c-7 15 -126 270 -263 566 -137 295 -252 537 -255 537 -4 0 -38
-69 -77 -152z m166 -398 l79 -175 -83 -3 c-46 -1 -122 -1 -169 0 l-84 3 82
182 c45 100 85 178 89 175 4 -4 42 -86 86 -182z M11113 2376 c-191 -46 -350
-203 -409 -402 -25 -83 -23 -229 5 -314 106 -334 477 -495 789 -344 69 34 168
126 211 199 47 78 81 199 81 291 l0 74 -290 0 -290 0 0 -80 0 -80 200 0 c195
0 200 0 200 -21 0 -67 -99 -193 -187 -238 -144 -73 -334 -39 -454 81 -160 160
-159 407 1 568 171 170 439 156 575 -30 l35 -48 73 20 c39 11 76 24 81 28 13
13 -59 113 -124 174 -64 59 -137 99 -221 121 -65 18 -205 18 -276 1z M12350
2376 c-74 -21 -113 -41 -161 -84 -64 -57 -92 -125 -93 -222 -2 -172 88 -245
377 -311 134 -30 188 -52 224 -91 69 -73 39 -173 -65 -220 -129 -58 -328 -16
-448 94 -27 24 -48 38 -53 32 -5 -5 -25 -39 -45 -75 l-37 -67 53 -42 c63 -51
172 -103 246 -119 75 -16 207 -14 275 4 167 43 267 151 275 298 12 196 -84
278 -405 351 -172 39 -233 79 -233 155 0 92 79 145 220 145 105 1 152 -13 233
-68 l64 -43 39 73 39 74 -30 24 c-44 36 -122 73 -190 91 -71 18 -221 18 -285
1z M14193 2375 c-101 -31 -168 -90 -198 -174 -33 -95 -8 -190 74 -283 l41 -46
-44 -26 c-59 -35 -111 -97 -137 -165 -17 -45 -20 -70 -16 -126 14 -181 127
-284 322 -293 129 -6 212 24 314 111 l34 29 66 -66 67 -66 114 0 115 0 -123
123 c-67 67 -122 126 -122 130 0 4 54 67 120 140 l120 132 -107 3 c-102 3
-109 2 -127 -20 -10 -13 -43 -49 -73 -81 l-56 -59 -88 88 -89 88 61 31 c87 43
134 87 164 152 53 110 20 247 -77 324 -27 21 -72 45 -100 54 -63 18 -197 19
-255 0z m229 -172 c18 -10 41 -35 51 -56 35 -70 -6 -132 -126 -188 l-69 -32
-50 49 c-57 56 -92 121 -82 158 8 32 43 64 91 82 49 18 142 12 185 -13z m-72
-569 l115 -115 -35 -30 c-52 -44 -135 -72 -194 -65 -64 7 -117 35 -139 74 -24
41 -24 113 0 155 18 31 104 97 127 97 6 0 63 -52 126 -116z M18370 2376 c-77
-22 -117 -43 -163 -85 -62 -58 -91 -126 -91 -221 -2 -170 90 -246 375 -311 71
-16 146 -37 167 -48 73 -38 106 -93 92 -156 -16 -73 -90 -121 -202 -132 -117
-10 -247 34 -342 119 -27 23 -51 37 -56 32 -4 -5 -25 -39 -45 -76 l-36 -67 53
-42 c106 -84 238 -129 378 -129 243 0 407 123 418 313 6 100 -12 152 -72 212
-63 62 -141 95 -316 135 -140 31 -197 55 -229 96 -47 59 -14 150 67 187 38 17
66 22 142 22 105 0 150 -15 235 -76 53 -38 59 -35 100 52 l30 61 -30 24 c-43
35 -120 71 -190 89 -71 18 -221 18 -285 1z M22965 2371 c-193 -56 -337 -194
-396 -381 -28 -85 -30 -230 -5 -315 58 -195 223 -354 417 -400 97 -23 214 -19
302 8 69 22 187 89 187 107 0 7 -59 142 -65 148 -2 2 -27 -15 -56 -37 -157
-119 -376 -101 -519 42 -229 229 -103 619 219 679 108 20 237 -14 316 -84 38
-32 37 -33 80 61 l30 63 -30 24 c-41 34 -122 72 -186 89 -74 20 -219 18 -294
-4z M5620 1825 l0 -555 80 0 80 0 0 190 0 190 83 0 84 0 134 -186 c74 -103
139 -188 145 -191 6 -2 50 -3 98 -1 l88 3 -141 195 -140 195 49 22 c142 63
222 221 198 394 -21 158 -122 256 -293 288 -32 6 -150 11 -262 11 l-203 0 0
-555z m440 385 c98 -19 159 -93 160 -193 0 -85 -36 -147 -105 -178 -33 -15
-66 -19 -187 -19 l-148 0 0 200 0 200 114 0 c62 0 137 -5 166 -10z M7780 2300
l0 -80 145 0 145 0 0 -475 0 -475 85 0 85 0 0 475 0 475 145 0 145 0 0 80 0
80 -375 0 -375 0 0 -80z M8870 1825 l0 -555 80 0 80 0 0 555 0 555 -80 0 -80
0 0 -555z M16000 1825 l0 -555 80 0 80 0 0 190 0 190 83 0 84 0 135 -187 135
-188 97 -3 c53 -1 96 0 96 4 0 3 -63 93 -139 199 l-139 193 46 18 c59 22 137
95 168 155 72 144 46 340 -58 434 -94 86 -176 105 -455 105 l-213 0 0 -555z
m450 384 c28 -6 65 -23 82 -37 62 -53 86 -160 53 -239 -40 -94 -85 -112 -277
-113 l-148 0 0 193 c0 107 3 197 7 200 11 11 228 8 283 -4z M17130 1825 l0
-555 315 0 315 0 0 80 0 80 -235 0 -235 0 0 155 0 155 195 0 195 0 0 85 0 85
-195 0 -195 0 0 155 0 155 235 0 235 0 0 80 0 80 -315 0 -315 0 0 -555z
M19270 1825 l0 -555 315 0 315 0 0 80 0 80 -235 0 -235 0 0 155 0 155 198 2
197 3 0 80 0 80 -197 3 -198 2 0 155 0 155 235 0 235 0 0 80 0 80 -315 0 -315
0 0 -555z M21520 1825 l0 -555 80 0 80 0 0 190 0 190 83 0 84 0 134 -186 c74
-103 139 -188 145 -191 6 -2 50 -3 98 -1 l87 3 -140 195 -140 195 49 22 c67
29 131 91 166 160 27 54 29 66 29 173 0 106 -2 120 -28 172 -46 93 -136 154
-263 177 -32 6 -149 11 -261 11 l-203 0 0 -555z m450 384 c28 -6 65 -23 82
-37 62 -53 86 -160 53 -239 -40 -94 -85 -112 -277 -113 l-148 0 0 200 0 200
120 0 c65 0 142 -5 170 -11z M23800 1825 l0 -555 80 0 80 0 0 33 c1 17 0 123
0 235 l-1 202 261 0 260 0 0 -235 0 -235 85 0 85 0 0 555 0 555 -85 0 -85 0 0
-235 0 -235 -259 0 -258 0 -1 208 c-1 114 -2 219 -2 235 l0 27 -80 0 -80 0 0
-555z"/>
  </g>
</svg>
