<?xml version="1.0" encoding="UTF-8"?>
<svg xmlns="http://www.w3.org/2000/svg" viewBox="0 0 3010 1112" width="3010" height="1112">
  <rect width="3010" height="1112" fill="#000000"/>
  <!-- Wordmark (vectorised from the PNG, black) -->
  <g transform="translate(0.000000,1112.000000) scale(0.100000,-0.100000)"
fill="#FFFFFF" stroke="none">
    <path d="M3385 9678 c-215 -463 -1825 -3920 -1974 -4240 -207 -446 -449 -966
-746 -1603 -169 -363 -318 -684 -331 -712 l-24 -53 538 0 537 1 367 802 367
802 1416 0 1416 0 240 -555 c132 -305 288 -666 346 -802 l107 -248 543 0 c299
0 543 3 543 6 0 5 -151 342 -897 2004 -184 410 -393 874 -464 1033 -71 158
-187 416 -258 575 -529 1176 -1188 2645 -1341 2985 -100 224 -186 407 -190
407 -4 0 -92 -181 -195 -402z m515 -2588 c171 -393 386 -884 476 -1091 90
-206 164 -379 164 -382 0 -4 -451 -7 -1001 -7 -949 0 -1001 1 -996 18 4 14
951 2086 1003 2195 l18 37 12 -27 c6 -16 152 -350 324 -743z M16700 9589
c-142 -17 -259 -76 -365 -183 -191 -193 -235 -470 -115 -714 100 -201 295
-332 520 -348 186 -13 340 46 475 181 115 115 168 221 186 371 46 406 -294
743 -701 693z M18510 8005 l0 -765 -205 0 -205 0 0 -450 0 -450 205 0 205 0 0
-1635 0 -1635 485 0 485 0 0 1635 0 1635 373 2 372 3 3 448 2 447 -375 0 -375
0 0 765 0 765 -485 0 -485 0 0 -765z M9265 7349 c-315 -16 -597 -87 -870 -219
-379 -182 -712 -482 -940 -845 -329 -524 -407 -1257 -199 -1874 146 -432 445
-816 843 -1083 278 -186 586 -302 940 -355 168 -25 555 -25 706 0 241 40 487
115 705 216 l125 57 2 634 3 635 -57 -65 c-217 -248 -435 -437 -595 -516 -323
-161 -759 -166 -1097 -13 -223 101 -442 320 -564 564 -151 303 -184 744 -82
1100 111 388 440 731 808 844 298 91 652 72 907 -50 209 -100 430 -291 659
-569 l20 -25 -2 640 -2 640 -80 39 c-387 190 -779 268 -1230 245z M22620 7349
c-147 -8 -271 -27 -422 -65 -666 -167 -1169 -697 -1353 -1424 -99 -392 -109
-897 -25 -1306 133 -644 518 -1153 1070 -1412 285 -134 554 -187 945 -187 262
1 376 12 570 57 504 116 931 441 1280 973 86 132 110 173 104 178 -8 7 -800
447 -804 447 -2 0 -32 -42 -66 -92 -222 -333 -420 -535 -605 -619 -230 -104
-570 -117 -824 -32 -289 97 -526 336 -635 641 -42 119 -85 321 -85 403 0 19
25 19 1495 19 l1495 0 0 198 c0 301 -23 518 -80 757 -118 494 -372 882 -748
1143 -347 240 -787 348 -1312 321z m420 -886 c295 -60 492 -211 631 -485 37
-72 100 -249 92 -260 -6 -10 -1920 -10 -1926 0 -8 13 40 143 88 238 144 285
418 480 740 523 89 12 277 4 375 -16z M11523 5853 c4 -1515 2 -1468 62 -1722
116 -483 530 -911 1045 -1080 411 -135 932 -135 1344 0 127 42 334 147 446
226 52 38 142 115 200 173 257 256 369 501 436 950 16 104 18 251 21 1478 l4
1362 -480 0 -480 0 -4 -1312 c-3 -1135 -6 -1324 -19 -1394 -53 -272 -139 -444
-283 -564 -63 -52 -189 -114 -280 -137 -106 -26 -382 -24 -486 5 -300 82 -469
293 -546 682 -15 76 -17 217 -20 1403 l-4 1317 -480 0 -480 0 4 -1387z M16300
5155 l0 -2085 480 0 480 0 0 2085 0 2085 -480 0 -480 0 0 -2085z M9473 1540
l2 -565 78 -3 77 -3 0 376 c0 206 2 375 4 375 1 0 93 -91 202 -202 109 -112
279 -284 376 -383 l178 -180 0 563 0 562 -75 0 -75 0 0 -376 c0 -221 -4 -374
-9 -372 -5 2 -121 118 -257 258 -136 140 -305 314 -376 385 l-128 130 3 -565z
M6960 1548 c-139 -299 -255 -551 -258 -561 -4 -16 3 -18 79 -15 l83 3 52 115
52 115 250 3 249 2 48 -107 c27 -60 53 -114 58 -120 6 -9 37 -13 89 -13 72 0
79 2 74 18 -20 53 -512 1102 -517 1102 -3 0 -120 -244 -259 -542z m350 9 c44
-98 80 -180 80 -183 0 -2 -76 -4 -170 -4 -93 0 -170 3 -170 8 0 19 166 370
172 364 4 -4 44 -88 88 -185z M11220 2083 c-222 -34 -405 -190 -466 -398 -24
-81 -24 -239 0 -319 53 -179 194 -318 386 -381 73 -25 223 -25 304 -1 227 67
385 288 386 539 l0 57 -287 -2 -288 -3 0 -75 0 -75 203 -3 c233 -3 223 3 172
-99 -112 -225 -419 -272 -614 -94 -39 36 -90 116 -109 175 -33 96 -17 238 34
325 144 241 493 272 647 58 38 -53 30 -52 140 -21 l52 16 -22 41 c-37 67 -146
171 -215 206 -101 50 -219 70 -323 54z M12408 2075 c-159 -40 -250 -137 -265
-279 -10 -93 26 -172 104 -232 54 -41 130 -70 268 -100 128 -28 175 -45 221
-80 58 -45 64 -136 12 -191 -43 -46 -96 -66 -193 -71 -132 -6 -233 31 -331
121 l-42 38 -36 -65 c-20 -35 -36 -69 -36 -74 0 -19 87 -87 151 -118 90 -44
159 -59 274 -58 248 2 405 134 405 337 -1 164 -98 244 -385 312 -216 52 -265
88 -252 186 11 83 92 129 227 129 97 0 161 -19 233 -69 l56 -40 35 65 c20 36
36 68 36 72 0 7 -79 62 -118 82 -87 43 -264 61 -364 35z M14255 2076 c-143
-35 -225 -130 -225 -260 0 -72 21 -120 85 -193 l45 -51 -44 -26 c-59 -34 -121
-107 -140 -163 -22 -65 -20 -161 4 -226 82 -219 408 -263 609 -81 l37 33 69
-69 69 -70 111 0 110 0 -127 128 -127 127 125 138 125 137 -103 0 -103 0 -73
-80 c-40 -44 -76 -80 -80 -80 -4 0 -49 39 -100 86 l-93 86 68 34 c163 83 227
213 173 356 -20 54 -80 123 -130 148 -74 38 -192 49 -285 26z m201 -165 c53
-24 74 -55 74 -108 0 -33 -7 -50 -29 -76 -28 -31 -145 -97 -174 -97 -24 0
-127 113 -139 153 -25 84 46 147 167 147 37 0 76 -8 101 -19z m-61 -571 c117
-118 119 -119 100 -140 -10 -11 -45 -33 -78 -50 -174 -87 -358 29 -289 182 21
46 59 86 107 111 17 9 32 16 35 17 3 0 59 -54 125 -120z M18420 2072 c-152
-40 -236 -129 -255 -269 -8 -65 14 -148 52 -194 59 -70 141 -105 354 -154 136
-30 202 -66 225 -120 19 -45 18 -61 -6 -110 -30 -61 -100 -97 -200 -103 -132
-8 -247 31 -341 115 l-47 43 -36 -65 c-20 -36 -36 -70 -36 -74 0 -17 80 -81
137 -110 255 -128 565 -70 663 126 29 58 38 163 20 228 -28 99 -140 175 -315
216 -186 43 -251 66 -284 104 -57 65 -32 157 54 200 32 16 60 20 145 20 119 0
173 -15 245 -71 l44 -33 25 42 c51 87 53 97 26 118 -119 94 -313 132 -470 91z
M20477 1538 c-142 -304 -257 -557 -257 -561 0 -4 37 -7 82 -5 l82 3 52 115 52
115 249 3 249 2 56 -120 57 -120 81 0 c74 0 81 2 76 18 -4 10 -65 144 -136
298 -72 153 -185 397 -252 542 -67 144 -125 262 -128 262 -4 0 -122 -249 -263
-552z m353 20 c44 -98 80 -180 80 -183 0 -3 -77 -5 -171 -5 -159 0 -171 1
-165 18 29 77 162 360 168 354 4 -4 43 -87 88 -184z M23095 2083 c-70 -8 -154
-37 -218 -75 -272 -159 -360 -497 -201 -768 67 -115 189 -208 334 -255 38 -13
87 -18 160 -18 89 -1 116 3 174 25 67 26 166 86 166 101 0 7 -58 128 -66 136
-2 3 -17 -7 -32 -22 -15 -14 -54 -38 -87 -54 -54 -25 -71 -28 -165 -28 -97 0
-110 2 -171 31 -78 37 -158 115 -194 188 -128 262 49 567 338 584 108 6 175
-10 252 -63 l63 -43 32 71 32 71 -24 18 c-99 79 -252 119 -393 101z M5662
1529 l3 -554 78 -3 77 -3 0 196 0 195 84 0 84 0 139 -192 139 -193 88 -3 c77
-2 88 -1 82 13 -3 8 -57 86 -119 173 -62 86 -121 169 -131 184 l-17 26 54 25
c70 32 127 89 162 163 40 84 47 213 15 298 -26 68 -75 126 -137 162 -79 47
-132 55 -376 61 l-227 6 2 -554z m471 380 c50 -14 103 -62 118 -107 18 -56 14
-145 -8 -189 -22 -43 -68 -78 -122 -93 -20 -5 -96 -10 -168 -10 l-133 0 0 205
0 205 138 0 c75 0 154 -5 175 -11z M7830 2000 l0 -80 145 0 145 0 0 -475 0
-476 78 3 77 3 3 473 2 472 146 0 145 0 -3 78 -3 77 -367 3 -368 2 0 -80z
M8917 2065 c-8 -18 -7 -1019 0 -1062 l5 -33 74 0 74 0 0 555 0 555 -74 0 c-55
0 -75 -4 -79 -15z M16050 1525 l0 -555 75 0 75 0 2 193 3 192 80 2 c45 1 85
-1 91 -5 6 -4 70 -91 144 -195 l134 -187 88 0 c48 0 88 2 88 5 0 2 -62 92
-139 198 l-139 194 58 27 c73 33 141 106 171 184 18 44 23 78 23 147 0 80 -3
97 -30 156 -73 154 -198 199 -556 199 l-168 0 0 -555z m503 371 c101 -50 132
-224 55 -312 -56 -63 -75 -69 -248 -69 l-155 0 -3 203 -2 203 157 -3 c131 -2
165 -6 196 -22z M17170 1525 l0 -555 315 0 315 0 0 80 0 80 -235 0 -235 0 0
160 0 160 195 0 195 0 0 75 0 75 -195 0 -195 0 0 160 0 160 235 0 235 0 0 80
0 80 -315 0 -315 0 0 -555z M19315 2068 c-3 -7 -4 -256 -3 -553 l3 -540 313
-3 312 -2 0 80 0 80 -235 0 -235 0 0 160 0 160 195 0 195 0 0 75 0 75 -195 0
-195 0 0 160 0 160 235 0 235 0 0 80 0 80 -310 0 c-239 0 -312 -3 -315 -12z
M21560 1525 l0 -556 78 3 77 3 3 191 2 191 84 2 83 2 140 -193 139 -193 88 -3
c77 -2 88 -1 82 13 -3 8 -57 86 -119 173 -62 86 -121 169 -131 184 l-17 26 53
24 c68 32 130 94 165 166 25 51 27 68 28 162 0 130 -22 187 -97 255 -91 82
-192 104 -480 105 l-178 0 0 -555z m473 384 c50 -14 103 -62 118 -107 18 -56
14 -145 -8 -189 -22 -43 -68 -78 -122 -93 -20 -5 -96 -10 -168 -10 l-133 0 0
205 0 205 138 0 c75 0 154 -5 175 -11z M23850 1525 l0 -556 78 3 77 3 3 238 2
237 260 0 260 0 2 -237 3 -238 78 -3 77 -3 0 556 0 555 -80 0 -80 0 0 -240 0
-240 -261 2 -262 3 2 220 c1 121 -1 228 -5 238 -5 14 -19 17 -80 17 l-74 0 0
-555z"/>
  </g>
  <!-- Accent band from acuite_accent_colour_band.svg, fitted to feather area -->
  <g transform="translate(2327.6398 -34.2777) scale(2.598863)" shape-rendering="geometricPrecision">
    <polygon points="91.08,48.23 99.55,82.11 29.37,148.66" fill="#EFB81D"/>
    <polygon points="28.91,51.65 43.43,86.74 -1.34,143.61" fill="#71AB45"/>
    <polygon points="129.48,38.97 141.58,77.69 39.94,156.34" fill="#DD913D"/>
    <polygon points="171.44,41.20 181.12,83.55 50.44,168.25" fill="#D46327"/>
    <polygon points="208.61,54.99 209.82,99.76 58.57,183.25" fill="#C94129"/>
    <polygon points="245.57,69.57 244.36,120.39 64.07,199.04" fill="#821A1B"/>
  </g>
</svg>
