<?xml version="1.0" encoding="UTF-8"?>
<svg xmlns="http://www.w3.org/2000/svg" viewBox="0 0 3006 1190" width="3006" height="1190" color="#FFFFFF">
  <rect width="3006" height="1190" fill="#EFB81D"/>
  <g transform="translate(0.000000,1190.000000) scale(0.100000,-0.100000)"
fill="currentColor" stroke="none">
    <path d="M26348 10373 c-157 -197 -366 -459 -465 -583 -99 -124 -431 -540
-738 -925 -307 -385 -637 -798 -732 -917 -95 -119 -173 -220 -173 -223 0 -3
136 97 303 223 432 326 966 729 1457 1098 424 318 425 319 630 527 113 115
206 214 208 220 1 7 -44 220 -101 475 l-103 463 -286 -358z M27697 10648 c-22
-23 -114 -120 -205 -213 -296 -302 -895 -917 -1577 -1620 -430 -443 -780 -803
-1220 -1254 -77 -79 -130 -138 -117 -131 13 6 110 66 215 132 106 67 431 271
722 453 292 183 806 506 1144 717 l614 386 230 193 c342 289 402 340 405 348
3 9 -153 960 -165 1004 l-8 29 -38 -44z M25235 10028 c-214 -332 -562 -871
-774 -1198 -568 -881 -581 -901 -567 -893 7 4 143 123 302 263 159 140 419
370 579 510 832 731 741 645 910 857 l153 191 -13 54 c-59 253 -188 785 -194
800 -5 15 -94 -116 -396 -584z M23876 10480 c-7 -17 -61 -178 -331 -975 -106
-313 -250 -736 -319 -940 -68 -203 -124 -371 -122 -372 1 -2 22 23 45 55 24
31 271 362 549 735 279 373 508 684 510 692 2 9 -10 48 -26 88 -68 168 -272
665 -286 697 -10 24 -16 30 -20 20z M3516 10348 c-7 -18 -75 -166 -151 -328
-75 -162 -152 -326 -170 -365 -94 -203 -241 -519 -272 -585 -20 -41 -64 -136
-98 -210 -34 -74 -216 -465 -404 -867 -767 -1646 -1035 -2222 -1256 -2698
-128 -275 -370 -795 -538 -1155 -167 -360 -315 -677 -327 -705 -13 -27 -25
-53 -27 -57 -2 -5 239 -8 536 -8 301 0 541 4 541 9 0 5 56 129 124 277 68 148
133 289 144 314 11 25 120 261 241 525 l220 480 1416 0 1416 0 89 -205 c138
-321 438 -1016 526 -1217 l79 -183 542 0 c299 0 543 3 543 6 0 3 -48 112 -106
243 -59 130 -155 344 -214 476 -59 132 -199 443 -310 690 -111 248 -231 513
-265 590 -34 77 -74 165 -88 195 -13 30 -133 296 -265 590 -132 294 -380 848
-552 1230 -172 382 -391 871 -487 1085 -163 364 -255 568 -423 940 -37 83
-149 333 -250 558 -101 224 -187 407 -191 407 -5 0 -15 -15 -23 -32z m109
-2418 c54 -124 112 -259 130 -300 27 -63 261 -600 666 -1526 43 -99 79 -184
79 -187 0 -4 -450 -7 -1000 -7 -586 0 -1000 4 -1000 9 0 5 18 49 41 98 23 48
135 293 249 543 114 250 319 698 455 995 136 297 254 555 262 574 8 18 16 32
17 30 2 -2 48 -105 101 -229z M28245 9919 c-291 -248 -569 -482 -616 -522
-104 -87 -580 -490 -889 -752 -218 -185 -457 -387 -874 -739 -111 -94 -231
-195 -267 -225 -36 -31 -90 -77 -120 -102 -30 -25 -175 -148 -324 -274 -255
-214 -323 -275 -300 -263 14 8 913 482 1020 538 126 67 420 222 545 287 58 31
184 97 280 148 96 51 297 157 445 235 766 404 831 440 976 542 80 57 263 186
407 288 l261 185 1 553 c0 303 -3 552 -7 551 -5 0 -246 -203 -538 -450z
M29635 9846 c-71 -50 -209 -148 -305 -216 -96 -68 -216 -153 -267 -189 -51
-36 -159 -113 -240 -171 -81 -57 -193 -136 -248 -175 -99 -70 -336 -238 -570
-404 -66 -46 -142 -101 -170 -121 -43 -32 -201 -144 -900 -638 -66 -47 -141
-100 -167 -119 -27 -18 -69 -48 -95 -66 -104 -73 -695 -492 -983 -697 -168
-119 -345 -245 -395 -280 -120 -85 -228 -162 -240 -172 -5 -4 56 21 135 56 80
36 386 171 680 301 294 130 803 355 1130 500 1450 642 1772 784 2205 975 253
112 463 206 467 209 8 7 101 1265 96 1287 -2 8 -58 -26 -133 -80z M16660 9889
c-279 -32 -505 -258 -541 -539 -23 -187 33 -364 160 -502 78 -85 165 -142 264
-173 161 -51 326 -40 475 31 144 69 282 236 325 394 64 233 -10 483 -189 637
-140 121 -309 173 -494 152z M18470 8305 l0 -765 -205 0 -205 0 0 -450 0 -450
205 0 205 0 0 -1635 0 -1635 485 0 485 0 0 1635 0 1635 373 2 372 3 2 448 3
447 -375 0 -375 0 -1 758 c-1 416 -1 760 0 765 0 4 -217 7 -484 7 l-485 0 0
-765z M9225 7649 c-322 -17 -601 -88 -880 -224 -82 -41 -188 -99 -235 -131
-285 -191 -531 -443 -702 -720 -376 -607 -411 -1469 -87 -2117 198 -395 533
-734 939 -950 297 -158 627 -240 1015 -254 406 -13 770 65 1168 250 l97 46 0
633 -1 633 -56 -65 c-95 -110 -344 -353 -418 -408 -193 -144 -412 -218 -676
-229 -376 -16 -679 96 -924 342 -228 227 -347 505 -375 873 -42 538 172 997
593 1274 321 212 825 245 1177 77 206 -98 439 -299 659 -569 l20 -25 -2 639
-2 639 -90 45 c-266 132 -600 223 -869 237 -56 3 -126 7 -156 9 -30 1 -118 -1
-195 -5z M22640 7653 c-766 -21 -1375 -415 -1696 -1101 -295 -627 -295 -1565
-2 -2192 257 -549 741 -935 1328 -1058 189 -40 269 -47 525 -47 266 1 377 12
580 60 437 103 800 351 1127 770 98 125 258 370 247 378 -2 2 -49 28 -104 59
-55 31 -234 130 -397 222 -164 91 -300 166 -302 166 -3 0 -33 -42 -67 -92
-240 -359 -442 -558 -646 -636 -138 -54 -227 -67 -428 -66 -161 1 -191 4 -279
27 -109 29 -229 84 -324 148 -87 58 -227 209 -286 307 -91 153 -163 375 -182
565 l-7 67 1497 0 1496 0 0 193 c-1 603 -116 1056 -364 1429 -319 482 -843
770 -1441 794 -71 2 -143 6 -160 7 -16 1 -68 1 -115 0z m356 -888 c279 -54
493 -212 621 -459 48 -93 115 -275 106 -288 -6 -10 -1920 -10 -1926 0 -8 12
40 143 88 237 144 288 417 480 740 524 85 12 273 4 371 -14z M11480 6228 c0
-802 4 -1360 10 -1433 41 -481 168 -772 465 -1058 335 -325 772 -487 1314
-487 534 0 982 171 1311 500 258 259 369 501 436 950 16 104 18 251 21 1478
l4 1362 -480 0 -480 0 -4 -1312 c-4 -1414 -2 -1354 -57 -1554 -77 -282 -255
-468 -512 -536 -69 -19 -110 -22 -248 -22 -190 0 -256 12 -384 73 -220 104
-347 298 -413 631 -15 76 -17 217 -20 1403 l-4 1317 -479 0 -480 0 0 -1312z
M16260 5455 l0 -2085 480 0 480 0 0 2085 0 2085 -480 0 -480 0 0 -2085z M7000
2048 c-90 -194 -208 -447 -262 -563 l-98 -210 87 -3 c47 -2 90 1 94 5 5 5 31
58 58 118 l49 110 238 3 c142 1 241 -1 247 -7 6 -6 31 -58 58 -118 l48 -108
90 -3 c50 -1 91 1 91 5 -1 17 -518 1117 -527 1120 -5 2 -83 -155 -173 -349z
m257 -195 l80 -178 -160 -3 c-88 -1 -162 0 -165 2 -6 6 150 355 159 356 3 0
42 -80 86 -177z M9430 1838 l0 -568 80 0 80 0 2 371 3 371 365 -375 c201 -206
371 -377 378 -380 9 -5 12 110 12 558 l0 565 -80 0 -80 0 0 -372 -1 -373 -379
385 -379 385 -1 -567z M20434 1844 c-142 -306 -260 -560 -262 -565 -2 -5 37
-9 86 -9 l90 0 53 120 53 120 243 0 244 0 56 -120 56 -120 88 0 88 0 -18 43
c-11 23 -73 157 -138 297 -66 140 -175 375 -243 523 -69 147 -127 267 -131
267 -3 0 -123 -250 -265 -556z m354 6 l79 -175 -84 -3 c-45 -1 -121 -1 -168 0
l-84 3 82 182 c45 100 85 178 89 175 3 -4 42 -86 86 -182z M11113 2376 c-95
-23 -183 -74 -259 -150 -114 -114 -167 -241 -167 -401 0 -160 53 -287 167
-401 111 -111 240 -164 399 -164 84 0 169 20 245 56 69 34 168 126 211 199 47
78 81 199 81 291 l0 74 -290 0 -290 0 0 -80 0 -80 200 0 c190 0 200 -1 200
-19 0 -37 -40 -112 -87 -162 -147 -157 -396 -155 -555 4 -158 158 -157 407 2
566 171 171 439 157 575 -29 l35 -48 73 20 c39 11 76 24 81 28 13 13 -59 113
-124 174 -64 59 -137 99 -221 121 -65 18 -205 18 -276 1z M12350 2376 c-77
-22 -117 -43 -163 -85 -62 -58 -91 -126 -91 -221 -1 -95 24 -151 91 -202 63
-48 131 -74 286 -109 70 -16 144 -37 165 -48 76 -39 110 -100 91 -160 -54
-169 -367 -173 -546 -8 -44 40 -45 41 -60 22 -8 -11 -28 -46 -44 -77 l-29 -57
53 -42 c62 -50 171 -102 245 -118 75 -16 207 -14 275 4 167 43 264 149 275
296 6 89 -11 148 -59 202 -53 61 -141 101 -314 143 -211 50 -265 84 -265 163
0 92 79 145 220 145 105 1 152 -13 234 -68 l63 -44 39 74 39 74 -30 24 c-42
35 -124 73 -191 91 -70 18 -221 18 -284 1z M14183 2371 c-101 -35 -161 -91
-191 -180 -30 -86 -2 -184 77 -273 l42 -47 -39 -20 c-55 -28 -117 -102 -143
-170 -17 -45 -20 -70 -16 -127 13 -179 128 -283 322 -292 129 -6 212 24 314
111 l34 29 66 -66 67 -66 114 0 115 0 -123 123 c-67 67 -122 126 -122 130 0 4
54 67 120 140 l120 132 -105 3 -106 3 -76 -81 -76 -81 -88 87 -89 88 61 31
c87 43 134 87 164 152 53 110 20 247 -77 324 -27 21 -72 45 -100 54 -70 21
-200 19 -265 -4z m239 -168 c18 -10 41 -35 51 -56 35 -71 -7 -132 -131 -190
l-64 -30 -50 49 c-57 56 -92 121 -82 158 8 32 43 64 91 82 49 18 142 12 185
-13z m-72 -569 l115 -115 -35 -30 c-19 -16 -59 -39 -90 -50 -97 -37 -210 -8
-246 63 -21 41 -20 111 3 151 18 31 104 97 127 97 6 0 63 -52 126 -116z
M18370 2375 c-171 -49 -253 -148 -254 -305 -1 -95 24 -151 91 -202 63 -48 131
-74 286 -109 70 -16 144 -37 165 -48 73 -38 106 -93 92 -156 -16 -73 -90 -121
-202 -132 -117 -10 -247 34 -343 119 -55 48 -53 49 -106 -54 l-29 -58 52 -41
c105 -83 238 -129 375 -129 155 0 267 42 348 132 52 57 75 120 75 201 0 180
-96 260 -388 326 -142 32 -199 56 -231 97 -47 59 -14 150 67 187 38 17 66 22
142 22 105 0 150 -15 235 -76 53 -38 59 -35 100 52 l30 61 -30 24 c-43 35
-120 71 -190 89 -71 18 -222 18 -285 0z M22975 2375 c-198 -55 -346 -195 -406
-385 -27 -85 -29 -230 -5 -315 57 -196 222 -354 417 -400 162 -38 350 -1 463
90 l29 23 -33 76 c-19 42 -35 76 -37 76 -1 0 -26 -18 -55 -40 -155 -117 -376
-99 -517 41 -92 93 -134 225 -112 350 52 295 394 436 628 260 l52 -40 13 22
c8 12 25 46 38 76 l24 53 -29 25 c-38 32 -122 71 -188 89 -65 17 -216 17 -282
-1z M5620 1825 l0 -555 80 0 80 0 0 190 0 190 84 0 84 0 133 -186 c73 -103
138 -188 144 -191 7 -2 51 -3 99 -1 l87 3 -140 195 -140 195 49 22 c142 63
222 221 198 394 -21 158 -122 256 -293 288 -32 6 -150 11 -262 11 l-203 0 0
-555z m490 373 c91 -39 136 -166 95 -265 -40 -94 -85 -112 -277 -113 l-148 0
0 201 0 201 148 -4 c101 -3 158 -9 182 -20z M7780 2300 l0 -80 145 0 145 0 0
-475 0 -475 85 0 85 0 0 475 0 475 145 0 145 0 0 80 0 80 -375 0 -375 0 0 -80z
M8870 1825 l0 -555 80 0 80 0 0 555 0 555 -80 0 -80 0 0 -555z M16000 1825 l0
-555 80 0 80 0 0 190 0 190 83 0 83 0 89 -122 c49 -68 111 -153 138 -190 l49
-68 94 0 c52 0 94 3 94 6 0 3 -63 93 -139 199 l-139 193 46 18 c68 26 154 115
181 187 55 151 26 315 -71 402 -94 85 -179 105 -460 105 l-208 0 0 -555z m450
384 c28 -6 65 -23 82 -37 62 -53 86 -160 53 -239 -40 -94 -85 -112 -277 -113
l-148 0 0 193 c0 107 3 197 7 200 11 11 228 8 283 -4z M17130 1825 l0 -555
315 0 315 0 0 80 0 80 -235 0 -235 0 0 155 0 155 194 0 c118 0 196 4 198 10 2
5 2 43 0 85 l-4 75 -194 0 -194 0 0 155 0 155 235 0 235 0 0 80 0 80 -315 0
-315 0 0 -555z M19270 1825 l0 -555 313 0 c173 0 316 2 318 4 2 2 3 38 1 80
l-4 76 -234 0 -234 0 0 155 0 155 198 2 197 3 0 80 0 80 -197 3 -198 2 0 155
0 155 235 0 235 0 0 80 0 80 -315 0 -315 0 0 -555z M21520 1825 l0 -555 80 0
80 0 0 190 0 190 83 0 83 0 89 -122 c49 -68 111 -153 138 -190 l49 -68 94 0
c87 0 94 1 85 18 -5 9 -68 98 -140 197 l-130 180 49 22 c106 47 185 156 198
276 25 220 -81 367 -293 406 -32 6 -150 11 -262 11 l-203 0 0 -555z m490 372
c93 -41 137 -164 95 -264 -40 -94 -85 -112 -277 -113 l-148 0 0 201 0 201 148
-4 c104 -4 157 -9 182 -21z M23800 1825 l0 -555 79 0 79 0 6 31 c3 17 6 123 6
235 l0 204 255 0 255 0 0 -235 0 -235 85 0 85 0 0 555 0 555 -85 0 -85 0 0
-235 0 -235 -255 0 c-197 0 -255 3 -256 13 0 6 0 79 1 160 1 81 -2 181 -5 222
l-7 75 -79 0 -79 0 0 -555z"/>
  </g>
</svg>
